<svg xmlns="http://www.w3.org/2000/svg" width="90" height="90" viewBox="0 0 90 90">
  <defs>
    <style>
      .cls-1 {
        fill: #705a46;
      }

      .cls-2 {
        fill: #a78867;
      }

      .cls-3 {
        fill: #bc9775;
      }

      .cls-4 {
        fill: #997a61;
      }

      .cls-5 {
        fill: #666463;
      }
    </style>
  </defs>
  <g>
    <g>
      <rect class="cls-1" x="13.27" y="37.28" width="60.11" height="43.6"/>
      <g>
        <rect class="cls-2" x="11.22" y="38.05" width="10.42" height="39.41"/>
        <rect class="cls-2" x="49.41" y="38.05" width="10.42" height="39.41"/>
        <rect class="cls-2" x="30.32" y="38.05" width="10.42" height="39.41"/>
        <rect class="cls-2" x="68.51" y="38.05" width="10.42" height="39.41"/>
      </g>
      <path class="cls-3" d="M7.14,74.58a2,2,0,0,0-2,2V83a2,2,0,0,0,2,2H83a2,2,0,0,0,2-2V76.58a2,2,0,0,0-2-2Z"/>
      <polygon class="cls-4" points="45.17 16.91 12.88 38.45 77.41 38.45 45.17 16.91"/>
      <path class="cls-3" d="M46.3,24.13a2,2,0,0,0-2.17,0L22,38.45H68.3Z"/>
      <g>
        <polygon class="cls-4" points="11.22 41.17 11.22 43.89 21.64 43.89 21.64 41.17 21.64 38.45 11.22 38.45 11.22 41.17"/>
        <polygon class="cls-4" points="30.32 41.17 30.32 43.89 40.73 43.89 40.73 41.17 40.73 38.45 30.32 38.45 30.32 41.17"/>
        <polygon class="cls-4" points="49.41 41.17 49.41 43.89 59.83 43.89 59.83 41.17 59.83 38.45 49.41 38.45 49.41 41.17"/>
        <polygon class="cls-4" points="68.51 38.45 68.51 41.17 68.51 43.89 78.92 43.89 78.92 41.17 78.92 38.45 68.51 38.45"/>
      </g>
      <rect class="cls-3" x="11.22" y="71.87" width="10.42" height="2.72"/>
      <rect class="cls-3" x="30.32" y="71.87" width="10.42" height="2.72"/>
      <rect class="cls-3" x="49.41" y="71.87" width="10.42" height="2.72"/>
      <rect class="cls-3" x="68.51" y="71.87" width="10.42" height="2.72"/>
      <path class="cls-5" d="M84.09,29.92,46.3,5.32a2,2,0,0,0-2.17,0L6.06,29.92a2,2,0,0,0-.92,1.68v7.33a2,2,0,0,0,2,2h4.63a2.14,2.14,0,0,0,1.17-.35L44.13,20.43a2,2,0,0,1,2.17,0l31,20.15a2.11,2.11,0,0,0,1.17.35H83a2,2,0,0,0,2-2V31.59A2,2,0,0,0,84.09,29.92Z"/>
    </g>
  </g>
</svg>