<svg xmlns="http://www.w3.org/2000/svg" width="90" height="90" viewBox="0 0 90 90">
  <defs>
    <style>
      .cls-1 {
        isolation: isolate;
      }

      .cls-2 {
        fill: #e7e6e5;
      }

      .cls-3 {
        fill: #aeb7b6;
      }

      .cls-4 {
        fill: #666564;
      }

      .cls-5 {
        fill: #7b7b7b;
        opacity: 0.4;
        mix-blend-mode: multiply;
      }

      .cls-6 {
        fill: #e9dbb6;
      }

      .cls-7 {
        fill: #e3ca88;
      }

      .cls-8 {
        fill: #f8b6a8;
      }

      .cls-9 {
        fill: #f48b8c;
      }

      .cls-10 {
        fill: #fff;
      }

      .cls-11 {
        fill: #a6a5a1;
      }

      .cls-12 {
        fill: #f8d57b;
      }

      .cls-13 {
        fill: #f1ab22;
      }
    </style>
  </defs>
  <g class="cls-1">
    <g>
      <g>
        <path class="cls-2" d="M75.23,77.72A7.3,7.3,0,0,1,68,85H17.27A7.29,7.29,0,0,1,10,77.72V12.26A7.3,7.3,0,0,1,17.27,5H68.12a7.3,7.3,0,0,1,7.27,7.27Z"/>
        <g>
          <rect class="cls-3" x="39.09" y="28.01" width="28.86" height="3.76" rx="0.26"/>
          <rect class="cls-3" x="17.27" y="35.53" width="50.68" height="3.77" rx="0.26"/>
          <rect class="cls-3" x="17.27" y="42.94" width="50.68" height="3.76" rx="0.26"/>
          <rect class="cls-3" x="39.09" y="13.21" width="28.86" height="3.77" rx="0.26"/>
          <rect class="cls-3" x="39.09" y="20.61" width="28.86" height="3.76" rx="0.26"/>
          <rect class="cls-3" x="17.27" y="50.46" width="50.68" height="3.77" rx="0.26"/>
          <rect class="cls-3" x="17.27" y="57.86" width="50.68" height="3.76" rx="0.26"/>
          <rect class="cls-3" x="17.27" y="65.39" width="50.68" height="3.76" rx="0.26"/>
          <path class="cls-3" d="M28.71,76.44a.41.41,0,0,1-.36.24H17.53a.26.26,0,0,1-.26-.26V73.17a.26.26,0,0,1,.26-.26h12.4a.16.16,0,0,1,.16.24Z"/>
        </g>
        <path class="cls-4" d="M27.76,13.21a11.28,11.28,0,0,1,2.42.24,5.18,5.18,0,0,1,1.87.76,3.53,3.53,0,0,1,1.2,1.42,4.9,4.9,0,0,1,.43,2.18,4.07,4.07,0,0,1-.63,2.33,4.51,4.51,0,0,1-1.89,1.53,4.48,4.48,0,0,1,2.56,1.73,5.16,5.16,0,0,1,.84,3A5.13,5.13,0,0,1,34,28.8a4.65,4.65,0,0,1-1.47,1.67,6.12,6.12,0,0,1-2.1,1,9.42,9.42,0,0,1-2.43.32H19V13.21Zm-.52,7.51A2.88,2.88,0,0,0,29,20.19a2,2,0,0,0,.71-1.68,2.05,2.05,0,0,0-.24-1.06,1.62,1.62,0,0,0-.62-.65,2.54,2.54,0,0,0-.9-.33,5.87,5.87,0,0,0-1.05-.09H23.12v4.34Zm.24,7.86a5.24,5.24,0,0,0,1.14-.12,2.73,2.73,0,0,0,1-.39,1.89,1.89,0,0,0,.66-.74,2.47,2.47,0,0,0,.25-1.19,2.4,2.4,0,0,0-.81-2,3.44,3.44,0,0,0-2.12-.61H23.12v5.09Z"/>
        <g>
          <polygon class="cls-5" points="28.37 76.68 33.13 74.17 75.24 33.69 75.23 54.64 45.8 76.68 28.37 76.68"/>
          <g>
            <polygon class="cls-6" points="37.92 67.13 31.8 61.01 28.37 76.68 44.04 73.25 37.92 67.13"/>
            <polygon class="cls-7" points="37.92 67.13 28.37 76.68 44.04 73.25 37.92 67.13"/>
            <path class="cls-8" d="M85,32.29,89.26,28a2.49,2.49,0,0,0,.42-.56A2.58,2.58,0,0,0,90,26.22a2.53,2.53,0,0,0-.21-1,2,2,0,0,0-.15-.29,2.09,2.09,0,0,0-.4-.51l-8.62-8.63a2.51,2.51,0,0,0-.65-.47l-.28-.12a2.85,2.85,0,0,0-.87-.16,2.58,2.58,0,0,0-1.24.33,2.49,2.49,0,0,0-.56.42l-4.26,4.26Z"/>
            <path class="cls-9" d="M78.88,26.17,85,32.29,89.26,28a2.49,2.49,0,0,0,.42-.56A2.58,2.58,0,0,0,90,26.22a2.53,2.53,0,0,0-.21-1,2,2,0,0,0-.15-.29,2.09,2.09,0,0,0-.4-.51l-4.3-4.31"/>
            <rect class="cls-10" x="74.03" y="19.53" width="5.68" height="17.31" transform="translate(2.59 62.61) rotate(-45)"/>
            <rect class="cls-11" x="77.09" y="26.92" width="5.68" height="8.65" transform="translate(1.32 65.67) rotate(-45)"/>
          </g>
          <rect class="cls-12" x="30.27" y="40.01" width="52.24" height="17.31" transform="translate(-17.89 54.13) rotate(-45)"/>
          <rect class="cls-13" x="33.33" y="47.39" width="52.24" height="8.65" transform="translate(-19.16 57.19) rotate(-45)"/>
        </g>
      </g>
    </g>
  </g>
</svg>